<?xml version="1.0" encoding="UTF-8"?><svg id="Layer_2" xmlns="http://www.w3.org/2000/svg" viewBox="0 0 436.12 413.61"><defs><style>.cls-1{fill:#77310a;}.cls-2{fill:#f67a04;}.cls-3{fill:#fcbd67;}.cls-4{fill:#fdfdfd;}</style></defs><g id="Layer_2-2"><path class="cls-1" d="M383.62,361.12c48.39-43.54,61.33-94.69,46.98-157.56-2.41-10.56-9.73-20.31-10.95-30.54-.49-25.57,1.19-49.85-2.55-75.06-3.9-26.28-8.61-51.47-19.41-75.94-8.4-19.02-26.01-27.72-45.92-18.03-29.21,14.21-52.46,36.1-73.41,60.53-2.61.29-5.9-.04-8.68-.6-36.02-7.23-72.05-7.08-107.88,1.16-2.4.55-4.96-1.17-6.41-2.8-22.01-24.83-42.88-45.36-73.66-59.22-14.97-6.74-30.62-1.81-39.5,11.55-5.04,7.58-7.58,15.75-10.41,24.63-14.84,46.62-17.21,84.62-14.79,133.9C3.68,200.83-1.83,230.18.53,260.98c3.71,48.55,31.06,87.82,70.99,114.32,0,0,55.91,38.31,146.22,38.31,106.87,0,165.88-52.5,165.88-52.5h0Z"/><path class="cls-3" d="M371.63,20.86c-15.54,6.31-48.5,42.71-60.19,56.72l-23.72,28.43c-44.58-16.4-92.76-16.4-137.06-.23-2.12.77-4.57-.61-5.18-2.43-12.41-17.09-25.6-32.7-40.15-47.91-6.54-6.84-12.45-13.63-20.05-19.33-6.48-6.3-13.41-11.56-21.44-15.25,2.36-1.1,6.26-1.45,8.56-.48,30.21,12.86,56.51,38.76,77.1,63.82,1.41,2.24,3.98,3.03,6.8,2.23,41.88-11.93,85.23-11.66,127.6.59,22.23-26.14,46.23-51.85,77.73-66.19,3.89-.92,6.85-.9,10,.02h0Z"/><path class="cls-2" d="M63.85,20.88c6.24.53,11.86,3.34,16.86,8.43,25.23,21.32,47.44,47,66.97,73.92l1.73.79c43.97-16.02,93.54-16.75,137.53-.19,20.01-25.54,42.07-49.7,66.18-72.48,5.46-6.01,11.63-9.51,18.51-10.48,5.3,1.55,8.96,6.11,10.74,11.51,5.65,17.16,9.76,34.48,13.2,52.56,5.67,29.76,6.6,58.8,4.23,89-.3,3.76,2.07,8.65,3.76,11.97,29.46,57.79,12.85,127.28-39.15,165.73-16.51,12.2-34.32,21.5-53.79,28.23-56.89,19.64-118.13,20.19-175.79,2.73-21.86-6.62-42.18-16.19-60.65-29.04-34.29-23.85-54.7-61.95-55.79-103.49-1.19-45.48,18.02-65.83,17.36-75.03-3.15-44.15.97-87.04,13.65-129.4,2.06-6.87,5.89-24.09,14.44-24.77h0Z"/><path class="cls-1" d="M364.62,134.51c-13.55-10.99-26.59-21.34-41.51-29.73-2.22-1.25-4.7-3.43-2.99-6.27,6.2-10.29,30.08-47.02,41.9-45.54,2.09.26,5.03,3.28,5.7,6.07,5.86,24.18,11.9,60.52,9.85,85.98l-12.95-10.51h0Z"/><path class="cls-1" d="M115.95,102.57c-21.29,12.17-39.07,26.01-57.84,43.42-1.28-30.29,3.57-58.88,10.13-87.41.6-2.63,4.31-5.31,6.37-5.59,10.72-1.41,32.24,31.74,38.19,41.08,1.26,2.63,2.19,4.97,3.15,8.49h0Z"/><path class="cls-1" d="M240.75,305.26c-20.67-1.42-20.88-14.69-24.9-9.44-6.66,8.7-16.71,10.72-27.1,9.16-12.16-1.82-22.62-9.96-22.92-23.11-.06-2.55,4.12-4.58,6.42-4.33,7.24.79,8.25,18.1,24.86,15.09,6.34-1.15,15.61-8.11,12.61-16.13-1.86-5-15.73-15.74-13.32-22.2,3.09-8.29,29.1-6.23,37.01-5.14,1.9.26,4.62,2.12,5.49,3.46,6.65,10.28-19.18,19.45-11.66,31.92,3.48,5.78,9.24,8.55,15.86,8.26,12.41-.55,14.11-13.51,20.15-15.13,2.43-.65,7.42.67,7.22,3.57-1.04,15.29-15.02,25.03-29.73,24.02h0Z"/><path class="cls-4" d="M148.47,242.5c-7.32,10.23-21.48,11.71-31.1,5.06-10.31-7.12-12.56-21.14-5.65-32.19,6.55-10.46,21.97-12.4,32.06-5.09,9.89,7.17,12.52,21.27,4.69,32.21h0Z"/><path class="cls-4" d="M323.07,243c-6.33,8.6-17.63,10.64-26.97,6.16-7.48-3.59-12.16-11.37-12.63-19.12s3.01-16.72,10.18-20.99c6.22-3.7,14.94-4.41,21.47-1.23,13.21,6.44,16.84,23.1,7.95,35.18Z"/></g></svg>